# xmcd
#
# Track frame offsets: 
#        150
#        11809
#        31130
#        43569
#        52044
#        64844
#        81732
#        98008
#        110890
#        126651
#        142495
#        157150
#        171619
#        188907
#
# Disc length: 2754 seconds
#
# Revision: 0
# Processed by: cddbd v1.4b42PL1 Copyright (c) Steve Scherf et al.
# Submitted via: ExactAudioCopy v0.90a11
#
DISCID=e00ac00e
DTITLE=John Jackson - Step It Up and Go
DYEAR=1900
DGENRE=
TTITLE0=Step it up and go
TTITLE1=Georgia Blues
TTITLE2=One Black Cat
TTITLE3=Bile 'em Cabbage Down
TTITLE4=She's Got Something There
TTITLE5=Brown Skin Woman
TTITLE6=South Carolina Rag
TTITLE7=Red Lips
TTITLE8=Key to the Highway
TTITLE9=Blackwater Blues
TTITLE10=Guitar Rag
TTITLE11=Matchbox Blues
TTITLE12=Kansas City
TTITLE13=You Promised Me Love
EXTD=Rounder Records
EXTT0=
EXTT1=
EXTT2=
EXTT3=
EXTT4=
EXTT5=
EXTT6=
EXTT7=
EXTT8=
EXTT9=
EXTT10=
EXTT11=
EXTT12=
EXTT13=
PLAYORDER=
